{
	"patcher" : 	{
		"fileversion" : 1,
		"appversion" : 		{
			"major" : 8,
			"minor" : 0,
			"revision" : 8,
			"architecture" : "x64",
			"modernui" : 1
		}
,
		"classnamespace" : "box",
		"rect" : [ 34.0, 77.0, 1267.0, 1006.0 ],
		"bglocked" : 0,
		"openinpresentation" : 0,
		"default_fontsize" : 12.0,
		"default_fontface" : 0,
		"default_fontname" : "Arial",
		"gridonopen" : 1,
		"gridsize" : [ 15.0, 15.0 ],
		"gridsnaponopen" : 1,
		"objectsnaponopen" : 1,
		"statusbarvisible" : 2,
		"toolbarvisible" : 1,
		"lefttoolbarpinned" : 0,
		"toptoolbarpinned" : 0,
		"righttoolbarpinned" : 0,
		"bottomtoolbarpinned" : 0,
		"toolbars_unpinned_last_save" : 0,
		"tallnewobj" : 0,
		"boxanimatetime" : 200,
		"enablehscroll" : 1,
		"enablevscroll" : 1,
		"devicewidth" : 0.0,
		"description" : "",
		"digest" : "",
		"tags" : "",
		"style" : "",
		"subpatcher_template" : "",
		"boxes" : [ 			{
				"box" : 				{
					"id" : "obj-24",
					"maxclass" : "comment",
					"numinlets" : 1,
					"numoutlets" : 0,
					"patching_rect" : [ 20.123456001281738, 184.271615982055664, 150.0, 20.0 ],
					"text" : "Ch. 04"
				}

			}
, 			{
				"box" : 				{
					"id" : "obj-23",
					"maxclass" : "comment",
					"numinlets" : 1,
					"numoutlets" : 0,
					"patching_rect" : [ 20.123456001281738, 148.283959984779358, 150.0, 20.0 ],
					"text" : "Ch. 03"
				}

			}
, 			{
				"box" : 				{
					"id" : "obj-22",
					"maxclass" : "comment",
					"numinlets" : 1,
					"numoutlets" : 0,
					"patching_rect" : [ 24.691359996795654, 111.061735987663269, 150.0, 20.0 ],
					"text" : "Ch. 02"
				}

			}
, 			{
				"box" : 				{
					"id" : "obj-21",
					"maxclass" : "comment",
					"numinlets" : 1,
					"numoutlets" : 0,
					"patching_rect" : [ 24.691359996795654, 67.666671991348267, 150.0, 20.0 ],
					"text" : "Ch. 01"
				}

			}
, 			{
				"box" : 				{
					"columns" : 4,
					"id" : "obj-20",
					"maxclass" : "matrixctrl",
					"numinlets" : 1,
					"numoutlets" : 2,
					"outlettype" : [ "list", "list" ],
					"parameter_enable" : 0,
					"patching_rect" : [ 76.341885924339294, 61.728399991989136, 170.74074399471283, 157.358031988143921 ]
				}

			}
, 			{
				"box" : 				{
					"id" : "obj-19",
					"maxclass" : "ezadc~",
					"numinlets" : 1,
					"numoutlets" : 2,
					"outlettype" : [ "signal", "signal" ],
					"patching_rect" : [ 436.835741877555847, 66.666671991348267, 45.0, 45.0 ]
				}

			}
, 			{
				"box" : 				{
					"id" : "obj-18",
					"maxclass" : "newobj",
					"numinlets" : 1,
					"numoutlets" : 1,
					"outlettype" : [ "signal" ],
					"patching_rect" : [ 280.045605897903442, 66.666671991348267, 44.0, 22.0 ],
					"text" : "noise~"
				}

			}
, 			{
				"box" : 				{
					"id" : "obj-16",
					"maxclass" : "newobj",
					"numinlets" : 4,
					"numoutlets" : 5,
					"outlettype" : [ "signal", "signal", "signal", "signal", "list" ],
					"patching_rect" : [ 280.045605897903442, 254.320980072021484, 82.0, 22.0 ],
					"text" : "matrix~ 4 4 1."
				}

			}
, 			{
				"box" : 				{
					"id" : "obj-15",
					"maxclass" : "newobj",
					"numinlets" : 2,
					"numoutlets" : 1,
					"outlettype" : [ "signal" ],
					"patching_rect" : [ 341.925955057144165, 66.666671991348267, 73.0, 22.0 ],
					"text" : "cycle~ 1000"
				}

			}
, 			{
				"box" : 				{
					"id" : "obj-13",
					"maxclass" : "ezdac~",
					"numinlets" : 2,
					"numoutlets" : 0,
					"patching_rect" : [ 1136.626887440681458, 560.387515902519226, 45.0, 45.0 ]
				}

			}
, 			{
				"box" : 				{
					"id" : "obj-12",
					"lastchannelcount" : 0,
					"maxclass" : "live.gain~",
					"numinlets" : 2,
					"numoutlets" : 5,
					"outlettype" : [ "signal", "signal", "", "float", "list" ],
					"parameter_enable" : 1,
					"patching_rect" : [ 1136.626887440681458, 381.925960421562195, 48.0, 136.0 ],
					"saved_attribute_attributes" : 					{
						"valueof" : 						{
							"parameter_mmin" : -70.0,
							"parameter_longname" : "live.gain~",
							"parameter_mmax" : 6.0,
							"parameter_shortname" : "live.gain~",
							"parameter_type" : 0,
							"parameter_unitstyle" : 4
						}

					}
,
					"varname" : "live.gain~"
				}

			}
, 			{
				"box" : 				{
					"id" : "obj-11",
					"maxclass" : "newobj",
					"numinlets" : 1,
					"numoutlets" : 1,
					"outlettype" : [ "signal" ],
					"patching_rect" : [ 1246.780745625495911, 318.849031329154968, 90.0, 22.0 ],
					"text" : "receive~ InTwo"
				}

			}
, 			{
				"box" : 				{
					"id" : "obj-10",
					"maxclass" : "newobj",
					"numinlets" : 1,
					"numoutlets" : 1,
					"outlettype" : [ "signal" ],
					"patching_rect" : [ 1136.626887440681458, 318.849031329154968, 90.0, 22.0 ],
					"text" : "receive~ InOne"
				}

			}
, 			{
				"box" : 				{
					"args" : [ 4 ],
					"bgmode" : 0,
					"border" : 0,
					"clickthrough" : 0,
					"enablehscroll" : 0,
					"enablevscroll" : 0,
					"id" : "obj-9",
					"lockeddragscroll" : 0,
					"maxclass" : "bpatcher",
					"name" : "inChannel.maxpat",
					"numinlets" : 1,
					"numoutlets" : 0,
					"offset" : [ 0.0, 0.0 ],
					"patching_rect" : [ 820.088391423225403, 318.849031329154968, 235.230770111083984, 599.615385055541992 ],
					"presentation" : 1,
					"presentation_rect" : [ 767.153913497924805, 16.0, 233.69230842590332, 596.538461685180664 ],
					"viewvisibility" : 1
				}

			}
, 			{
				"box" : 				{
					"args" : [ 3 ],
					"bgmode" : 0,
					"border" : 0,
					"clickthrough" : 0,
					"enablehscroll" : 0,
					"enablevscroll" : 0,
					"id" : "obj-8",
					"lockeddragscroll" : 0,
					"maxclass" : "bpatcher",
					"name" : "inChannel.maxpat",
					"numinlets" : 1,
					"numoutlets" : 0,
					"offset" : [ 0.0, 0.0 ],
					"patching_rect" : [ 572.780676960945129, 318.849031329154968, 224.461538314819336, 599.615385055541992 ],
					"presentation" : 1,
					"presentation_rect" : [ 519.846199035644531, 16.0, 230.615385055541992, 596.538461685180664 ],
					"viewvisibility" : 1
				}

			}
, 			{
				"box" : 				{
					"args" : [ 2 ],
					"bgmode" : 0,
					"border" : 0,
					"clickthrough" : 0,
					"enablehscroll" : 0,
					"enablevscroll" : 0,
					"id" : "obj-7",
					"lockeddragscroll" : 0,
					"maxclass" : "bpatcher",
					"name" : "inChannel.maxpat",
					"numinlets" : 1,
					"numoutlets" : 0,
					"offset" : [ 0.0, 0.0 ],
					"patching_rect" : [ 320.857577443122864, 318.849031329154968, 227.538461685180664, 602.69230842590332 ],
					"presentation" : 1,
					"presentation_rect" : [ 267.923099517822266, 16.0, 236.769231796264648, 602.69230842590332 ],
					"viewvisibility" : 1
				}

			}
, 			{
				"box" : 				{
					"args" : [ 1 ],
					"bgmode" : 0,
					"border" : 0,
					"clickthrough" : 0,
					"enablehscroll" : 0,
					"enablevscroll" : 0,
					"id" : "obj-3",
					"lockeddragscroll" : 0,
					"maxclass" : "bpatcher",
					"name" : "inChannel.maxpat",
					"numinlets" : 1,
					"numoutlets" : 0,
					"offset" : [ 0.0, 0.0 ],
					"patching_rect" : [ 68.934477925300598, 318.849031329154968, 229.076923370361328, 596.538461685180664 ],
					"presentation" : 1,
					"presentation_rect" : [ 16.0, 16.0, 233.69230842590332, 602.69230842590332 ],
					"viewvisibility" : 1
				}

			}
 ],
		"lines" : [ 			{
				"patchline" : 				{
					"destination" : [ "obj-12", 0 ],
					"source" : [ "obj-10", 0 ]
				}

			}
, 			{
				"patchline" : 				{
					"destination" : [ "obj-12", 1 ],
					"source" : [ "obj-11", 0 ]
				}

			}
, 			{
				"patchline" : 				{
					"destination" : [ "obj-13", 1 ],
					"source" : [ "obj-12", 1 ]
				}

			}
, 			{
				"patchline" : 				{
					"destination" : [ "obj-13", 0 ],
					"source" : [ "obj-12", 0 ]
				}

			}
, 			{
				"patchline" : 				{
					"destination" : [ "obj-16", 1 ],
					"source" : [ "obj-15", 0 ]
				}

			}
, 			{
				"patchline" : 				{
					"destination" : [ "obj-16", 0 ],
					"source" : [ "obj-18", 0 ]
				}

			}
, 			{
				"patchline" : 				{
					"destination" : [ "obj-16", 2 ],
					"source" : [ "obj-19", 0 ]
				}

			}
, 			{
				"patchline" : 				{
					"destination" : [ "obj-16", 0 ],
					"source" : [ "obj-20", 0 ]
				}

			}
 ],
		"parameters" : 		{
			"obj-12" : [ "live.gain~", "live.gain~", 0 ],
			"parameterbanks" : 			{

			}

		}
,
		"dependency_cache" : [ 			{
				"name" : "inChannel.maxpat",
				"bootpath" : "~/Documents/School/2019/Fall/aet-320g/lectures/week-07_lecture-01",
				"patcherrelativepath" : ".",
				"type" : "JSON",
				"implicit" : 1
			}
, 			{
				"name" : "pan2.maxpat",
				"bootpath" : "~/AppData/Roaming/Cycling '74/Max 8/examples/spatialization/panning/lib",
				"patcherrelativepath" : "../../../../../../../AppData/Roaming/Cycling '74/Max 8/examples/spatialization/panning/lib",
				"type" : "JSON",
				"implicit" : 1
			}
 ],
		"autosave" : 0
	}

}
